<?xml version="1.0" standalone="no"?>
<!DOCTYPE svg PUBLIC "-//W3C//DTD SVG 20010904//EN"
 "http://www.w3.org/TR/2001/REC-SVG-20010904/DTD/svg10.dtd">
<svg version="1.0" xmlns="http://www.w3.org/2000/svg"
 width="216.000000pt" height="216.000000pt" viewBox="0 0 216.000000 216.000000"
 preserveAspectRatio="xMidYMid meet">
<metadata>
Created by potrace 1.11, written by Peter Selinger 2001-2013
</metadata>
<g transform="translate(0.000000,216.000000) scale(0.100000,-0.100000)"
fill="#000000" stroke="none">
<path d="M607 1773 c-3 -5 -8 -55 -11 -113 -4 -58 -10 -120 -13 -137 -4 -28
-2 -33 15 -33 16 0 22 11 32 61 16 72 43 116 90 143 32 19 54 21 274 24 135 2
237 0 235 -5 -2 -5 -37 -57 -78 -116 l-74 -107 -109 0 c-59 0 -108 -1 -109 -2
-1 -2 -6 -65 -13 -140 -10 -126 -10 -138 5 -138 12 0 21 19 34 70 12 49 26 79
46 99 26 27 75 48 86 37 3 -2 -117 -180 -266 -394 -149 -214 -271 -397 -271
-406 0 -14 22 -16 195 -16 l194 0 -64 -92 c-36 -51 -65 -101 -65 -110 0 -17
28 -18 449 -18 l449 0 5 22 c26 107 47 252 38 261 -13 13 -11 17 -53 -74 -40
-86 -79 -122 -148 -138 -25 -6 -154 -11 -288 -11 l-243 0 55 78 54 77 189 3
189 2 26 142 c15 78 25 145 22 150 -13 21 -31 4 -48 -44 -43 -127 -108 -176
-246 -185 -44 -3 -80 -2 -79 3 0 5 127 191 283 414 l283 405 -199 5 -198 5 95
137 c52 75 95 139 95 142 0 9 -858 7 -863 -1z m575 -725 l-267 -383 -103 -3
c-56 -1 -102 0 -102 3 0 4 118 177 262 386 l263 379 107 0 107 0 -267 -382z"/>
</g>
</svg>
