<?xml version="1.0" standalone="no"?>
<!DOCTYPE svg PUBLIC "-//W3C//DTD SVG 20010904//EN"
 "http://www.w3.org/TR/2001/REC-SVG-20010904/DTD/svg10.dtd">
<svg version="1.0" xmlns="http://www.w3.org/2000/svg"
 width="1706.000000pt" height="1124.000000pt" viewBox="0 0 1706.000000 1124.000000"
 preserveAspectRatio="xMidYMid meet">
<metadata>
Created by potrace 1.15, written by Peter Selinger 2001-2017
</metadata>
<g transform="translate(0.000000,1124.000000) scale(0.100000,-0.100000)"
fill="#000000" stroke="none">
<path d="M10220 11229 c-63 -4 -189 -13 -280 -19 -522 -36 -1430 -173 -2017
-305 -1309 -296 -2604 -775 -3682 -1363 -204 -111 -510 -288 -529 -306 -9 -9
-12 -55 -10 -185 l3 -172 95 49 c153 80 477 232 735 345 1193 520 2367 877
3670 1116 1276 234 2538 305 3650 206 627 -57 1130 -151 1715 -322 230 -67
568 -202 810 -323 907 -453 1466 -1084 1689 -1905 126 -461 129 -879 12 -1339
-201 -784 -729 -1485 -1485 -1967 l-116 -74 0 -477 c0 -263 4 -478 8 -478 4 0
48 16 98 36 542 218 1091 616 1508 1094 547 626 869 1342 951 2115 19 183 19
535 0 721 -45 428 -139 762 -315 1119 -166 336 -331 565 -615 851 -292 294
-528 473 -915 695 -851 488 -2000 796 -3289 884 -246 16 -1470 20 -1691 4z"/>
<path d="M12993 6563 c3 -2250 -1 -2092 56 -2256 82 -235 270 -413 530 -502
78 -26 203 -53 271 -57 l45 -3 3 2443 2 2442 -455 0 -455 0 3 -2067z"/>
<path d="M14723 8612 c-97 -35 -162 -93 -214 -192 -21 -39 -24 -59 -24 -150 0
-92 3 -112 26 -160 94 -199 346 -267 529 -142 113 77 166 185 158 322 -6 98
-39 169 -108 234 -101 95 -249 130 -367 88z m243 -100 c125 -65 181 -227 124
-359 -21 -49 -70 -109 -70 -86 0 6 -20 45 -44 86 l-45 75 30 24 c36 27 50 78
39 138 -8 45 -31 75 -75 98 -37 19 -218 20 -241 2 -11 -10 -14 -51 -14 -219 0
-225 2 -231 55 -231 53 0 60 11 56 94 -2 69 -1 76 17 76 13 0 32 -24 63 -80
46 -84 62 -96 119 -88 44 7 27 -8 -38 -32 -157 -60 -331 26 -373 183 -23 87 4
200 64 265 78 85 226 109 333 54z"/>
<path d="M2470 8080 l0 -430 455 0 455 0 0 430 0 430 -455 0 -455 0 0 -430z"/>
<path d="M7630 6376 c0 -1535 2 -1775 15 -1852 64 -369 289 -642 622 -754 151
-50 249 -60 604 -60 280 0 318 2 323 16 9 23 7 717 -2 731 -5 8 -77 13 -247
15 -223 3 -243 5 -280 25 -56 30 -82 61 -108 129 l-22 59 -3 887 -3 888 333 2
333 3 3 348 c1 231 -1 354 -8 368 -11 19 -21 19 -335 17 l-325 -3 0 473 0 472
-450 0 -450 0 0 -1764z"/>
<path d="M1705 7892 c-569 -526 -1006 -1095 -1292 -1682 -139 -285 -215 -488
-291 -775 -65 -245 -86 -355 -111 -587 -17 -152 -14 -807 4 -963 22 -185 41
-300 76 -455 124 -543 334 -981 680 -1415 126 -158 414 -449 566 -572 921
-746 2193 -1206 3818 -1382 466 -51 708 -61 1469 -61 802 0 1114 14 1725 76
1735 176 3593 651 5066 1296 142 63 560 268 702 345 l53 28 2 655 c2 360 2
657 0 660 -2 2 -18 -4 -35 -14 -656 -381 -1504 -749 -2366 -1028 -1197 -387
-2394 -652 -3446 -762 -476 -50 -841 -77 -1315 -97 -324 -13 -1213 -7 -1460
10 -771 55 -1278 127 -1839 262 -330 79 -694 199 -993 328 -899 386 -1521 969
-1809 1699 -105 265 -174 545 -205 833 -20 190 -14 629 10 809 36 256 99 527
188 800 175 540 496 1104 882 1555 l86 100 0 215 c0 118 3 225 6 238 12 45
-23 21 -171 -116z"/>
<path d="M10749 7235 c-523 -85 -924 -371 -1153 -825 -75 -148 -108 -235 -146
-392 -45 -182 -63 -347 -63 -568 0 -218 12 -346 49 -528 118 -588 464 -1002
985 -1176 223 -74 427 -101 699 -93 498 16 826 145 1188 467 50 45 92 87 91
93 -1 12 -527 518 -545 524 -6 2 -31 -17 -56 -41 -126 -120 -278 -209 -422
-246 -169 -43 -420 -45 -580 -4 -137 35 -285 133 -362 239 -80 110 -134 260
-148 413 l-7 72 1112 0 1111 0 -5 303 c-4 253 -8 322 -27 426 -64 364 -190
651 -382 878 -187 221 -433 370 -728 440 -91 22 -134 25 -315 29 -148 2 -235
-1 -296 -11z m378 -751 c155 -32 283 -123 356 -254 49 -88 93 -225 109 -340
l14 -95 -660 -3 c-362 -1 -660 -1 -662 1 -1 1 2 38 7 82 27 228 130 410 291
515 146 96 360 133 545 94z"/>
<path d="M2474 7187 c-2 -7 -3 -634 -2 -1392 l3 -1380 27 -96 c73 -265 239
-457 485 -559 92 -38 233 -75 326 -85 l67 -7 -2 1763 -3 1764 -448 3 c-359 2
-449 0 -453 -11z"/>
<path d="M4143 7194 c-10 -4 -13 -363 -13 -1745 l0 -1739 455 0 455 0 -2 1375
-3 1375 387 0 c248 0 406 -4 440 -11 113 -24 177 -75 215 -170 17 -41 18 -126
21 -1306 l2 -1263 450 0 450 0 -2 1323 -3 1322 -27 96 c-35 129 -80 232 -134
315 -51 77 -155 188 -225 240 -59 43 -185 106 -269 133 -152 48 -174 49 -1210
55 -536 4 -981 3 -987 0z"/>
</g>
</svg>
